<svg xmlns="http://www.w3.org/2000/svg" viewBox="0 0 512 512"><path d="M494.6 144.2c-1-3.1-3.6-5.3-6.8-5.8 -31.6-5-80-6-131.3 18.2 -20.6 9.7-40.1 22.7-57.7 38.7h-85.6c-17.7-15.9-37.1-29-57.7-38.7 -51.3-24.2-99.7-23.2-131.3-18.2 -3.2 0.5-5.8 2.8-6.8 5.8 -11.4 35.4-17.2 72.4-17.4 110.1 -0.2 38.7 5.7 76.8 17.4 113.2 1 3.1 3.6 5.3 6.7 5.8 10.8 1.8 23.4 3.1 37.5 3.1 27.7 0 60.7-5 95-21.5 20.3-9.7 39.3-22.7 56.7-38.5h88.9c4.7 0 8.6-3.8 8.6-8.5v-24.3c10.5 3.1 21.3 5.5 32 7.1 8.2 1.3 16.6 2.1 24.8 2.5 0.1 0 0.3 0 0.4 0 4.5 0 8.3-3.5 8.5-8.1 0.2-4.7-3.4-8.7-8.1-9 -7.7-0.4-15.5-1.2-23.1-2.4 -11.7-1.8-23.3-4.5-34.6-8.1v-25.4c11-3.3 23.7-6.8 34.4-8.2 13.9-1.8 28.1-2.1 42.1-1 4.7 0.4 8.8-3.1 9.2-7.8 0.4-4.7-3.1-8.8-7.8-9.2 -15.2-1.2-30.6-0.9-45.7 1.1 -10.2 1.3-21.8 4.2-32.3 7.3v-14.7c16.3-14.7 34.2-26.6 53.2-35.5 44.6-21 86.9-21.5 116.1-17.5 9.8 32.2 14.8 65.8 15 99.9 0.1 35.1-4.9 69.7-15 102.8 -55 6.4-95.8-7.7-140.7-29.2 -4.3-2-9.4-0.2-11.4 4s-0.2 9.4 4 11.4c34.2 16.4 57.4 30.4 118.6 32.9 14 0.6 26.7-1.3 37.5-3.1 3.2-0.5 5.8-2.8 6.7-5.8 11.7-36.4 17.6-74.5 17.4-113.2C511.8 216.7 506 179.6 494.6 144.2zM201.4 222.4c-10.5-3.1-22-6-32.3-7.3 -15.1-1.9-30.5-2.3-45.7-1.1 -4.7 0.4-8.2 4.5-7.8 9.2 0.4 4.7 4.5 8.2 9.2 7.8 14-1.1 28.2-0.8 42.1 1 10.7 1.4 23.4 4.8 34.4 8.2v25.4c-11.3 3.6-22.9 6.3-34.6 8.1 -7.6 1.2-15.4 2-23.1 2.4 -4.7 0.2-8.3 4.3-8.1 9 0.2 4.6 4 8.1 8.5 8.1 0.1 0 0.3 0 0.4 0 8.3-0.4 16.6-1.3 24.8-2.5 10.8-1.7 21.5-4 32-7.1v20.6c-16 14.5-33.5 26.4-52.2 35.4 -44.9 21.5-87.6 21.8-117.1 17.7 -10.1-33.2-15.1-67.7-15-102.8 0.1-34.1 5.2-67.6 15-99.9 29.2-3.9 71.5-3.5 116.1 17.6 19 8.9 36.8 20.9 53.2 35.5V222.4zM293.5 233.9c0 0 0 0.1 0 0.1v65.3h-75.1v-65.3c0 0 0-0.1 0-0.1v-21.5h75.1V233.9z"/></svg>

