<?xml version="1.0" standalone="no"?>
<!DOCTYPE svg PUBLIC "-//W3C//DTD SVG 20010904//EN"
 "http://www.w3.org/TR/2001/REC-SVG-20010904/DTD/svg10.dtd">
<svg version="1.0" xmlns="http://www.w3.org/2000/svg"
 width="512.000000pt" height="512.000000pt" viewBox="0 0 512.000000 512.000000"
 preserveAspectRatio="xMidYMid meet">
<metadata>
Created by potrace 1.11, written by Peter Selinger 2001-2013
</metadata>
<g transform="translate(0.000000,512.000000) scale(0.100000,-0.100000)"
fill="#000000" stroke="none">
<path d="M490 3758 c-202 -8 -268 -20 -296 -52 -24 -27 -91 -260 -123 -426
-117 -600 -87 -1207 85 -1778 18 -59 32 -87 49 -98 62 -41 495 -59 700 -29
438 62 839 244 1165 526 l56 48 462 3 462 3 27 28 c27 27 28 30 31 163 4 134
4 136 25 130 160 -43 421 -86 523 -86 85 0 127 50 98 119 -16 38 -38 47 -139
56 -118 10 -297 42 -407 72 l-98 26 0 127 0 128 113 31 c168 46 287 61 498 61
173 0 188 1 213 21 35 28 37 89 3 123 -21 21 -37 25 -131 31 -178 12 -466 -20
-631 -70 -28 -8 -53 -15 -57 -15 -5 0 -8 33 -8 73 l0 72 48 41 c324 278 720
449 1147 495 122 13 471 7 486 -8 14 -14 66 -212 93 -358 44 -230 59 -400 58
-660 0 -256 -14 -408 -57 -640 -23 -122 -79 -352 -88 -362 -13 -12 -230 -19
-367 -12 -310 16 -578 89 -952 260 -59 27 -117 49 -128 49 -30 0 -80 -53 -80
-85 0 -46 18 -64 109 -110 363 -182 584 -250 926 -285 227 -23 550 -5 610 34
25 17 51 91 99 281 150 600 139 1277 -30 1867 -39 134 -54 165 -88 177 -85 33
-499 42 -676 16 -450 -66 -841 -242 -1171 -527 l-57 -48 -432 0 -432 0 -57 48
c-232 200 -526 362 -816 450 -258 78 -467 102 -765 90z m338 -179 c402 -44
767 -197 1095 -462 l87 -70 0 -74 c0 -40 -3 -73 -7 -73 -5 0 -30 7 -58 15
-165 50 -453 82 -631 70 -94 -6 -110 -10 -131 -31 -34 -34 -32 -95 3 -123 25
-20 40 -21 213 -21 211 0 330 -15 499 -61 l112 -31 0 -128 0 -127 -97 -26
c-111 -30 -290 -62 -408 -72 -101 -9 -123 -18 -139 -56 -29 -69 13 -119 98
-119 102 0 362 43 524 86 22 6 22 5 22 -97 l0 -103 -32 -28 c-389 -338 -871
-519 -1375 -518 -123 1 -269 12 -279 23 -10 10 -66 236 -89 362 -43 232 -57
384 -57 640 -1 260 14 430 58 660 26 140 78 343 91 356 19 18 359 24 501 8z
m2102 -1019 l0 -430 -370 0 -370 0 0 430 0 430 370 0 370 0 0 -430z"/>
</g>
</svg>
